<?xml version="1.0" encoding="UTF-8"?>
<!DOCTYPE svg PUBLIC "-//W3C//DTD SVG 1.1//EN" "http://www.w3.org/Graphics/SVG/1.1/DTD/svg11.dtd">
<svg xmlns="http://www.w3.org/2000/svg" version="1.1" width="314px" height="300px" style="shape-rendering:geometricPrecision; text-rendering:geometricPrecision; image-rendering:optimizeQuality; fill-rule:evenodd; clip-rule:evenodd" xmlns:xlink="http://www.w3.org/1999/xlink">
<g><path style="opacity:1" fill="#fdfdfd" d="M -0.5,-0.5 C 48.1667,-0.5 96.8333,-0.5 145.5,-0.5C 88.9281,4.86113 46.0948,31.8611 17,80.5C 8.73717,95.4564 3.5705,111.456 1.5,128.5C 0.565525,129.568 0.232191,130.901 0.5,132.5C 0.794717,134.735 0.461384,136.735 -0.5,138.5C -0.5,92.1667 -0.5,45.8333 -0.5,-0.5 Z"/></g>
<g><path style="opacity:1" fill="#fdfdfd" d="M 164.5,-0.5 C 214.167,-0.5 263.833,-0.5 313.5,-0.5C 313.5,46.1667 313.5,92.8333 313.5,139.5C 306.25,81.5494 276.25,39.7161 223.5,14C 218.376,11.4589 213.042,9.62557 207.5,8.5C 193.637,3.11649 179.304,0.116486 164.5,-0.5 Z"/></g>
<g><path style="opacity:1" fill="#faf9f9" d="M 207.5,8.5 C 260.225,28.0648 294.058,65.0648 309,119.5C 318.732,192.872 291.232,247.039 226.5,282C 184.21,300.752 141.21,302.418 97.5,287C 47.006,265.513 15.6726,228.013 3.5,174.5C 1.84922,161.903 1.18256,149.236 1.5,136.5C 2.45115,135.081 2.78448,133.415 2.5,131.5C 12.9062,73.2577 45.5728,33.0911 100.5,11C 126.459,1.60123 153.126,-1.06544 180.5,3C 189.575,4.6225 198.575,6.45584 207.5,8.5 Z"/></g>
<g><path style="opacity:1" fill="#252525" d="M 145.5,-0.5 C 151.833,-0.5 158.167,-0.5 164.5,-0.5C 179.304,0.116486 193.637,3.11649 207.5,8.5C 198.575,6.45584 189.575,4.6225 180.5,3C 153.126,-1.06544 126.459,1.60123 100.5,11C 45.5728,33.0911 12.9062,73.2577 2.5,131.5C 1.59603,130.791 1.26269,129.791 1.5,128.5C 3.5705,111.456 8.73717,95.4564 17,80.5C 46.0948,31.8611 88.9281,4.86113 145.5,-0.5 Z"/></g>
<g><path style="opacity:1" fill="#1c1c1b" d="M 109.5,25.5 C 111.446,27.3527 112.946,29.686 114,32.5C 115.914,36.3144 116.581,40.3144 116,44.5C 112.109,38.7264 109.942,32.3931 109.5,25.5 Z"/></g>
<g><path style="opacity:1" fill="#1d1d1d" d="M 197.5,24.5 C 198.622,26.2884 198.789,28.2884 198,30.5C 197,33.5 196,36.5 195,39.5C 194.576,41.6145 193.409,42.4479 191.5,42C 192.894,37.2571 194.06,32.4237 195,27.5C 196.045,26.6266 196.878,25.6266 197.5,24.5 Z"/></g>
<g><path style="opacity:1" fill="#1e1c1b" d="M 155.5,17.5 C 157.25,18.7417 158.917,20.2417 160.5,22C 160,22.5 159.5,23 159,23.5C 158.667,27.8333 158.333,32.1667 158,36.5C 155.281,37.4438 152.448,37.7771 149.5,37.5C 148.881,42.6681 145.881,45.3348 140.5,45.5C 136.439,45.072 134.439,42.7386 134.5,38.5C 136.533,30.4349 137.866,30.6016 138.5,39C 141.257,40.9228 143.923,40.7562 146.5,38.5C 145.311,37.5713 143.978,37.238 142.5,37.5C 142.357,35.7376 142.691,34.0709 143.5,32.5C 147.445,31.5091 151.445,31.1758 155.5,31.5C 155.208,26.709 155.208,22.0424 155.5,17.5 Z"/></g>
<g><path style="opacity:1" fill="#1e1d1b" d="M 165.5,17.5 C 167.436,21.7147 168.103,26.3814 167.5,31.5C 169.401,31.4332 171.234,31.7665 173,32.5C 173.5,32.1667 174,31.8333 174.5,31.5C 173.5,30.8333 172.5,30.1667 171.5,29.5C 173.392,25.814 176.225,24.814 180,26.5C 180.333,28.5 180.667,30.5 181,32.5C 182.667,33.8333 184.333,33.8333 186,32.5C 186.333,29.1667 186.667,25.8333 187,22.5C 187.667,21.8333 188.333,21.1667 189,20.5C 191.845,23.3825 191.845,26.0492 189,28.5C 188.766,32.3142 187.932,35.9808 186.5,39.5C 182.409,40.7116 178.909,39.7116 176,36.5C 175.261,37.5742 174.261,38.2409 173,38.5C 165.252,39.0868 162.085,35.5868 163.5,28C 163.306,24.2401 163.973,20.7401 165.5,17.5 Z"/></g>
<g><path style="opacity:1" fill="#1c1b1a" d="M 123.5,27.5 C 127.477,30.4047 129.143,34.4047 128.5,39.5C 128.999,48.7481 125.332,50.9148 117.5,46C 122.059,46.5922 125.059,44.7589 126.5,40.5C 120.841,40.582 119.008,37.582 121,31.5C 121.662,30.0161 122.496,28.6828 123.5,27.5 Z"/></g>
<g><path style="opacity:1" fill="#d9d8d6" d="M 122.5,32.5 C 124.983,32.73 125.483,33.3966 124,34.5C 122.97,34.1639 122.47,33.4972 122.5,32.5 Z"/></g>
<g><path style="opacity:1" fill="#1c1b19" d="M 100.5,27.5 C 102.68,28.757 104.68,30.257 106.5,32C 106.265,32.8732 105.931,33.7065 105.5,34.5C 108.146,38.1096 109.312,42.1096 109,46.5C 106.895,47.3114 104.895,48.3114 103,49.5C 102.228,49.3552 101.561,49.0219 101,48.5C 98.1498,52.1106 94.4832,54.7772 90,56.5C 88.416,56.0116 87.2494,55.0116 86.5,53.5C 85.0357,56.003 83.869,58.6697 83,61.5C 79.2337,64.261 75.7337,67.4276 72.5,71C 70.3046,72.373 67.9712,72.7063 65.5,72C 63.0017,69.5521 61.5017,66.7187 61,63.5C 62.2951,65.1217 63.7951,66.455 65.5,67.5C 68.5751,65.9338 71.2417,63.7671 73.5,61C 70.9447,59.742 70.2781,57.9086 71.5,55.5C 72.8333,56.5 74.1667,57.5 75.5,58.5C 78.563,56.9748 81.2297,54.9748 83.5,52.5C 83,52.1667 82.5,51.8333 82,51.5C 80.3745,52.2887 78.8745,53.2887 77.5,54.5C 76.2309,52.3052 76.2309,50.1385 77.5,48C 81.2345,47.0443 84.9012,45.8777 88.5,44.5C 89.3311,46.4731 89.4978,48.4731 89,50.5C 91.5641,48.2728 94.3974,46.4394 97.5,45C 95.6041,43.1917 95.1041,41.025 96,38.5C 97.5095,40.2077 99.0095,41.8744 100.5,43.5C 102.332,42.7515 103.999,41.7515 105.5,40.5C 102.941,36.4034 101.274,32.0701 100.5,27.5 Z"/></g>
<g><path style="opacity:1" fill="#1b1b1b" d="M 144.5,45.5 C 147.569,46.4959 148.069,48.1626 146,50.5C 143.667,50.1667 141.333,49.8333 139,49.5C 138.786,46.6865 139.953,46.0198 142.5,47.5C 143.522,47.1445 144.189,46.4778 144.5,45.5 Z"/></g>
<g><path style="opacity:1" fill="#161415" d="M 58.5,51.5 C 59.8333,51.5 61.1667,51.5 62.5,51.5C 62.5,52.8333 62.5,54.1667 62.5,55.5C 61.1667,55.5 59.8333,55.5 58.5,55.5C 58.5,54.1667 58.5,52.8333 58.5,51.5 Z"/></g>
<g><path style="opacity:1" fill="#232221" d="M 100.5,52.5 C 103.91,52.3838 105.244,54.0504 104.5,57.5C 103.167,57.5 101.833,57.5 100.5,57.5C 100.5,55.8333 100.5,54.1667 100.5,52.5 Z"/></g>
<g><path style="opacity:1" fill="#282626" d="M 63.5,53.5 C 65.1667,53.5 66.8333,53.5 68.5,53.5C 68.5,54.8333 68.5,56.1667 68.5,57.5C 67.1667,57.5 65.8333,57.5 64.5,57.5C 64.5,58.8333 64.5,60.1667 64.5,61.5C 63.1667,61.5 61.8333,61.5 60.5,61.5C 60.5,59.8333 60.5,58.1667 60.5,56.5C 61.5,56.5 62.5,56.5 63.5,56.5C 63.5,55.5 63.5,54.5 63.5,53.5 Z"/></g>
<g><path style="opacity:1" fill="#191818" d="M 214.5,56.5 C 216.912,56.244 218.579,57.244 219.5,59.5C 220.167,59.1667 220.833,58.8333 221.5,58.5C 224.176,61.0522 223.842,62.7189 220.5,63.5C 219.281,62.7366 218.281,61.7366 217.5,60.5C 216.914,60.7093 216.414,61.0426 216,61.5C 214.192,59.9669 213.692,58.3003 214.5,56.5 Z"/></g>
<g><path style="opacity:1" fill="#2c2b2b" d="M 252.5,56.5 C 253.833,56.5 255.167,56.5 256.5,56.5C 256.5,57.5 256.5,58.5 256.5,59.5C 257.5,59.5 258.5,59.5 259.5,59.5C 259.421,60.9305 259.754,62.2638 260.5,63.5C 258.955,64.4519 257.288,64.7852 255.5,64.5C 255.5,63.1667 255.5,61.8333 255.5,60.5C 254.5,60.5 253.5,60.5 252.5,60.5C 252.5,59.1667 252.5,57.8333 252.5,56.5 Z"/></g>
<g><path style="opacity:1" fill="#1b1a18" d="M 213.5,38.5 C 214.833,38.5 216.167,38.5 217.5,38.5C 216.139,44.0456 218.139,47.7123 223.5,49.5C 224.068,47.5654 225.235,46.2321 227,45.5C 227.5,45.8333 228,46.1667 228.5,46.5C 225.377,49.9201 226.044,52.2534 230.5,53.5C 232.289,49.4815 234.955,46.1482 238.5,43.5C 238.833,43.8333 239.167,44.1667 239.5,44.5C 236.783,48.2556 234.95,52.2556 234,56.5C 235.512,57.2567 236.846,58.2567 238,59.5C 236.766,56.3146 237.932,54.3146 241.5,53.5C 246.35,56.1126 246.683,59.2792 242.5,63C 244.35,65.0176 246.35,66.8509 248.5,68.5C 249.741,65.856 251.741,65.0226 254.5,66C 252.981,67.3513 251.648,68.8513 250.5,70.5C 252.192,72.3586 253.692,74.3586 255,76.5C 258.39,73.9308 261.556,71.2642 264.5,68.5C 265.167,68.6667 265.833,68.8333 266.5,69C 265.594,70.6995 265.261,72.5328 265.5,74.5C 263.801,74.3398 262.134,74.5065 260.5,75C 257.938,78.6024 254.605,80.6024 250.5,81C 243.309,71.4648 234.643,63.7981 224.5,58C 223.929,56.7949 223.262,55.6283 222.5,54.5C 219.196,54.7731 216.363,53.4398 214,50.5C 213.282,51.4506 212.449,51.6172 211.5,51C 210.137,49.0551 209.303,46.8884 209,44.5C 206.019,47.9371 202.519,48.4371 198.5,46C 204.655,45.5895 209.655,43.0895 213.5,38.5 Z"/></g>
<g><path style="opacity:1" fill="#6f6f6f" d="M 149.5,58.5 C 177.916,56.8079 203.249,64.6413 225.5,82C 247.24,103.211 256.74,129.044 254,159.5C 237.976,154.952 221.809,150.952 205.5,147.5C 208.933,136.984 210.933,126.151 211.5,115C 207.822,78.9991 187.822,61.9991 151.5,64C 126.553,71.1893 113.887,87.8559 113.5,114C 114.052,123.863 115.718,133.53 118.5,143C 118.167,143.5 117.833,144 117.5,144.5C 99.6484,150.452 81.6484,155.785 63.5,160.5C 63.7787,102.243 92.4454,68.2429 149.5,58.5 Z"/></g>
<g><path style="opacity:1" fill="#1c1b1a" d="M 47.5,67.5 C 51.3431,70.5025 55.3431,73.3359 59.5,76C 61.3318,77.4886 62.1652,79.322 62,81.5C 58.1667,79 54.3333,76.5 50.5,74C 49.5877,71.7492 48.5877,69.5825 47.5,67.5 Z"/></g>
<g><path style="opacity:1" fill="#1a1919" d="M 266.5,76.5 C 268.199,76.3398 269.866,76.5065 271.5,77C 268.167,79.6667 264.833,82.3333 261.5,85C 259.553,85.9913 257.553,86.3247 255.5,86C 259.359,82.9684 263.026,79.8017 266.5,76.5 Z"/></g>
<g><path style="opacity:1" fill="#c56761" d="M 180.5,87.5 C 180.665,83.8183 180.499,80.1516 180,76.5C 177.806,74.1632 175.306,73.8299 172.5,75.5C 175.217,72.8555 178.05,72.8555 181,75.5C 181.812,79.6888 181.645,83.6888 180.5,87.5 Z"/></g>
<g><path style="opacity:1" fill="#d0271f" d="M 180.5,87.5 C 180.693,90.8111 179.693,93.4777 177.5,95.5C 174.598,96.5778 171.598,97.2444 168.5,97.5C 167.89,95.5659 166.89,93.8993 165.5,92.5C 164.072,89.9884 163.572,87.3217 164,84.5C 166.334,81 169.168,78 172.5,75.5C 175.306,73.8299 177.806,74.1632 180,76.5C 180.499,80.1516 180.665,83.8183 180.5,87.5 Z"/></g>
<g><path style="opacity:1" fill="#141414" d="M 280.5,90.5 C 279.533,91.8062 278.199,92.4729 276.5,92.5C 276.768,90.901 276.434,89.5676 275.5,88.5C 273.824,87.8166 273.157,86.4832 273.5,84.5C 274.833,84.5 276.167,84.5 277.5,84.5C 277.5,85.8333 277.5,87.1667 277.5,88.5C 279.179,88.2852 280.179,88.9519 280.5,90.5 Z"/></g>
<g><path style="opacity:1" fill="#1b1917" d="M 41.5,76.5 C 43.2884,75.3775 45.2884,75.2109 47.5,76C 51.5077,79.0294 55.1744,82.5294 58.5,86.5C 54.5461,91.3842 51.3794,96.7175 49,102.5C 46.8913,103.035 46.3913,104.035 47.5,105.5C 46.8721,107.258 45.8721,108.758 44.5,110C 45.9561,110.423 46.4561,111.256 46,112.5C 44.2197,113.594 42.3864,114.594 40.5,115.5C 41.7883,118.034 41.7883,120.534 40.5,123C 46.6533,125.286 48.1533,129.452 45,135.5C 42.5027,137.478 39.6693,137.978 36.5,137C 34.8333,135.333 33.1667,133.667 31.5,132C 33.4665,132.24 35.2998,133.073 37,134.5C 41.1261,132.868 42.4594,129.868 41,125.5C 39.4016,128.925 37.4016,129.258 35,126.5C 34.4101,122.703 34.9101,119.036 36.5,115.5C 31.5093,108.939 32.8426,105.939 40.5,106.5C 41.6808,104.802 41.6808,103.135 40.5,101.5C 36.4994,100.504 33.1661,98.5043 30.5,95.5C 34.7325,95.8516 38.8992,97.185 43,99.5C 44.0726,97.4534 45.2393,95.4534 46.5,93.5C 44.6745,92.4291 43.5079,93.0958 43,95.5C 38.3754,87.1293 40.3754,84.796 49,88.5C 50.353,87.3147 51.5197,85.9814 52.5,84.5C 48.7701,81.7477 45.1035,79.0811 41.5,76.5 Z"/></g>
<g><path style="opacity:1" fill="#1e1a18" d="M 156.5,97.5 C 152.079,97.1376 148.079,95.8042 144.5,93.5C 143.558,88.1946 143.391,82.8613 144,77.5C 144.608,73.5394 146.774,72.0394 150.5,73C 155.355,76.6985 159.022,81.3651 161.5,87C 159.429,90.3089 157.762,93.8089 156.5,97.5 Z"/></g>
<g><path style="opacity:1" fill="#818181" d="M 275.5,88.5 C 276.434,89.5676 276.768,90.901 276.5,92.5C 278.199,92.4729 279.533,91.8062 280.5,90.5C 280.5,91.5 280.5,92.5 280.5,93.5C 278.833,93.5 277.167,93.5 275.5,93.5C 275.5,91.8333 275.5,90.1667 275.5,88.5 Z"/></g>
<g><path style="opacity:1" fill="#232222" d="M 265.5,91.5 C 268.167,91.5 270.833,91.5 273.5,91.5C 273.152,96.3634 270.485,99.0301 265.5,99.5C 258.958,96.601 258.958,93.9343 265.5,91.5 Z"/></g>
<g><path style="opacity:1" fill="#f8f7f8" d="M 266.5,93.5 C 268.337,93.6395 268.67,94.3061 267.5,95.5C 266.702,95.0431 266.369,94.3764 266.5,93.5 Z"/></g>
<g><path style="opacity:1" fill="#1a1715" d="M 142.5,95.5 C 144.35,98.3362 145.684,101.503 146.5,105C 145.396,106.715 144.062,108.215 142.5,109.5C 140.847,109.66 139.514,110.326 138.5,111.5C 135.136,112.511 132.136,111.678 129.5,109C 127.667,107.167 125.833,105.333 124,103.5C 120.981,96.509 123.315,93.509 131,94.5C 134.848,94.7575 138.682,95.0908 142.5,95.5 Z"/></g>
<g><path style="opacity:1" fill="#e18c88" d="M 177.5,95.5 C 178.209,96.404 179.209,96.7373 180.5,96.5C 179.885,99.7941 178.885,102.961 177.5,106C 180.89,109.196 184.89,111.029 189.5,111.5C 188.737,112.268 187.737,112.768 186.5,113C 187.416,113.278 188.082,113.778 188.5,114.5C 186.506,115.35 184.506,115.85 182.5,116C 184.037,114.89 184.703,113.39 184.5,111.5C 181.995,111.02 179.662,110.02 177.5,108.5C 176.818,109.243 176.151,109.909 175.5,110.5C 175.912,108.027 174.912,106.694 172.5,106.5C 171.494,106.062 171.494,105.396 172.5,104.5C 173.708,105.234 175.041,105.567 176.5,105.5C 176.5,104.5 176.5,103.5 176.5,102.5C 177.931,101.22 178.598,99.5529 178.5,97.5C 175.518,97.9629 172.518,98.2962 169.5,98.5C 168.833,98.5 168.5,98.1667 168.5,97.5C 171.598,97.2444 174.598,96.5778 177.5,95.5 Z"/></g>
<g><path style="opacity:1" fill="#191613" d="M 154.5,100.5 C 153.864,102.795 152.531,104.461 150.5,105.5C 149.5,105.5 148.5,105.5 147.5,105.5C 147.149,102.762 146.482,100.096 145.5,97.5C 145.833,97.1667 146.167,96.8333 146.5,96.5C 149.665,97.2504 152.331,98.5838 154.5,100.5 Z"/></g>
<g><path style="opacity:1" fill="#aa322b" d="M 176.5,102.5 C 176.5,103.5 176.5,104.5 176.5,105.5C 175.041,105.567 173.708,105.234 172.5,104.5C 170.755,102.967 169.755,100.967 169.5,98.5C 172.518,98.2962 175.518,97.9629 178.5,97.5C 178.598,99.5529 177.931,101.22 176.5,102.5 Z"/></g>
<g><path style="opacity:1" fill="#cf251e" d="M 189.5,111.5 C 184.89,111.029 180.89,109.196 177.5,106C 178.885,102.961 179.885,99.7941 180.5,96.5C 186.901,95.1739 193.401,95.1739 200,96.5C 200.706,98.9712 200.373,101.305 199,103.5C 196.234,106.777 193.067,109.443 189.5,111.5 Z"/></g>
<g><path style="opacity:1" fill="#d8241a" d="M 176.5,102.5 C 173.192,104.284 171.525,103.284 171.5,99.5C 173.144,99.7135 174.644,99.3802 176,98.5C 176.49,99.7932 176.657,101.127 176.5,102.5 Z"/></g>
<g><path style="opacity:1" fill="#e0d9d8" d="M 165.5,92.5 C 166.89,93.8993 167.89,95.5659 168.5,97.5C 168.5,98.1667 168.833,98.5 169.5,98.5C 169.755,100.967 170.755,102.967 172.5,104.5C 171.494,105.396 171.494,106.062 172.5,106.5C 172.5,107.5 172.5,108.5 172.5,109.5C 171.31,107.645 169.977,105.812 168.5,104C 166.112,103.697 163.945,102.863 162,101.5C 158.964,103.172 155.964,104.839 153,106.5C 152.907,109.007 152.074,111.174 150.5,113C 152.036,114.468 152.37,115.968 151.5,117.5C 150.662,117.158 150.328,116.492 150.5,115.5C 149.167,113.833 149.167,112.167 150.5,110.5C 151.494,108.666 151.494,106.999 150.5,105.5C 152.531,104.461 153.864,102.795 154.5,100.5C 155.167,99.8333 155.833,99.1667 156.5,98.5C 160.243,99.9889 163.91,99.8223 167.5,98C 166.139,96.4157 165.472,94.5824 165.5,92.5 Z"/></g>
<g><path style="opacity:1" fill="#fcfbfb" d="M 172.5,109.5 C 172.48,111.143 173.147,112.476 174.5,113.5C 174.137,114.183 173.804,114.85 173.5,115.5C 173.5,115.833 173.5,116.167 173.5,116.5C 171.946,117.914 170.612,119.581 169.5,121.5C 166.842,122.829 164.176,124.162 161.5,125.5C 157.84,124.005 154.507,122.005 151.5,119.5C 151.5,118.833 151.5,118.167 151.5,117.5C 152.37,115.968 152.036,114.468 150.5,113C 152.074,111.174 152.907,109.007 153,106.5C 155.964,104.839 158.964,103.172 162,101.5C 163.945,102.863 166.112,103.697 168.5,104C 169.977,105.812 171.31,107.645 172.5,109.5 Z"/></g>
<g><path style="opacity:1" fill="#181515" d="M 150.5,105.5 C 151.494,106.999 151.494,108.666 150.5,110.5C 149.733,109.828 149.066,108.995 148.5,108C 149.381,107.292 150.047,106.458 150.5,105.5 Z"/></g>
<g><path style="opacity:1" fill="#222121" d="M 260.5,100.5 C 261.805,103.968 264.305,106.301 268,107.5C 270.154,106.68 271.654,105.18 272.5,103C 274.167,102.333 275.833,102.333 277.5,103C 274.144,108.845 269.144,111.178 262.5,110C 259.422,107.384 258.755,104.218 260.5,100.5 Z"/></g>
<g><path style="opacity:1" fill="#ad3d3a" d="M 172.5,106.5 C 174.912,106.694 175.912,108.027 175.5,110.5C 174.391,110.443 173.391,110.11 172.5,109.5C 172.5,108.5 172.5,107.5 172.5,106.5 Z"/></g>
<g><path style="opacity:1" fill="#6f6b68" d="M 35.5,109.5 C 36.9778,109.238 38.3112,109.571 39.5,110.5C 38.8333,110.833 38.1667,111.167 37.5,111.5C 36.2867,111.253 35.62,110.586 35.5,109.5 Z"/></g>
<g><path style="opacity:1" fill="#b7b4b1" d="M 142.5,109.5 C 141.713,111.104 140.38,111.771 138.5,111.5C 139.514,110.326 140.847,109.66 142.5,109.5 Z"/></g>
<g><path style="opacity:1" fill="#8e8b89" d="M 144.5,93.5 C 148.079,95.8042 152.079,97.1376 156.5,97.5C 156.5,97.8333 156.5,98.1667 156.5,98.5C 155.833,99.1667 155.167,99.8333 154.5,100.5C 152.331,98.5838 149.665,97.2504 146.5,96.5C 146.167,96.8333 145.833,97.1667 145.5,97.5C 146.482,100.096 147.149,102.762 147.5,105.5C 148.5,105.5 149.5,105.5 150.5,105.5C 150.047,106.458 149.381,107.292 148.5,108C 149.066,108.995 149.733,109.828 150.5,110.5C 149.167,112.167 149.167,113.833 150.5,115.5C 148.153,116.607 147.82,118.274 149.5,120.5C 148.391,120.557 147.391,120.89 146.5,121.5C 144.669,119.224 142.336,117.391 139.5,116C 141.937,116.203 144.271,117.037 146.5,118.5C 148.574,115.303 148.907,111.969 147.5,108.5C 145.784,108.629 144.117,108.962 142.5,109.5C 144.062,108.215 145.396,106.715 146.5,105C 145.684,101.503 144.35,98.3362 142.5,95.5C 143.833,95.5 144.5,94.8333 144.5,93.5 Z"/></g>
<g><path style="opacity:1" fill="#1a191a" d="M 281.5,107.5 C 283.924,107.192 286.257,107.526 288.5,108.5C 282.638,112.105 276.305,113.939 269.5,114C 273.69,112.074 277.69,109.907 281.5,107.5 Z"/></g>
<g><path style="opacity:1" fill="#1b1815" d="M 146.5,121.5 C 145.311,124.888 143.644,128.054 141.5,131C 135.823,132.422 130.156,132.589 124.5,131.5C 121.223,129.823 120.723,127.49 123,124.5C 127.825,119.54 132.992,115.207 138.5,111.5C 140.38,111.771 141.713,111.104 142.5,109.5C 144.117,108.962 145.784,108.629 147.5,108.5C 148.907,111.969 148.574,115.303 146.5,118.5C 144.271,117.037 141.937,116.203 139.5,116C 142.336,117.391 144.669,119.224 146.5,121.5 Z"/></g>
<g><path style="opacity:1" fill="#1f1f1f" d="M 287.5,114.5 C 289.429,114.231 291.095,114.731 292.5,116C 291.383,117.892 289.716,118.725 287.5,118.5C 287.5,117.167 287.5,115.833 287.5,114.5 Z"/></g>
<g><path style="opacity:1" fill="#1c1b19" d="M 150.5,115.5 C 150.328,116.492 150.662,117.158 151.5,117.5C 151.5,118.167 151.5,118.833 151.5,119.5C 151.158,120.338 150.492,120.672 149.5,120.5C 147.82,118.274 148.153,116.607 150.5,115.5 Z"/></g>
<g><path style="opacity:1" fill="#141413" d="M 266.5,116.5 C 267.805,119.968 270.305,122.301 274,123.5C 275.775,122.73 277.275,121.563 278.5,120C 279.944,119.219 281.277,119.386 282.5,120.5C 279.427,125.253 275.094,126.753 269.5,125C 265.416,123.468 264.416,120.634 266.5,116.5 Z"/></g>
<g><path style="opacity:1" fill="#b4342c" d="M 191.5,116.5 C 196.202,118.871 199.536,122.538 201.5,127.5C 201.058,128.739 200.391,129.739 199.5,130.5C 199.45,125.404 197.117,121.738 192.5,119.5C 191.873,118.583 191.539,117.583 191.5,116.5 Z"/></g>
<g><path style="opacity:1" fill="#181613" d="M 149.5,120.5 C 152.29,121.967 153.956,124.3 154.5,127.5C 151.569,128.007 148.902,129.007 146.5,130.5C 145.761,130.631 145.094,130.464 144.5,130C 145.713,127.313 146.38,124.48 146.5,121.5C 147.391,120.89 148.391,120.557 149.5,120.5 Z"/></g>
<g><path style="opacity:1" fill="#d3251e" d="M 188.5,114.5 C 189.5,115.167 190.5,115.833 191.5,116.5C 191.539,117.583 191.873,118.583 192.5,119.5C 197.117,121.738 199.45,125.404 199.5,130.5C 192.877,131.755 186.21,131.755 179.5,130.5C 178.942,127.656 178.275,124.822 177.5,122C 177.585,120.893 177.919,119.893 178.5,119C 175.876,116.847 174.876,114.013 175.5,110.5C 176.151,109.909 176.818,109.243 177.5,108.5C 179.662,110.02 181.995,111.02 184.5,111.5C 184.703,113.39 184.037,114.89 182.5,116C 184.506,115.85 186.506,115.35 188.5,114.5 Z"/></g>
<g><path style="opacity:1" fill="#cc281c" d="M 170.5,127.5 C 169.833,127.5 169.5,127.167 169.5,126.5C 169.66,124.847 170.326,123.514 171.5,122.5C 172.708,121.766 174.041,121.433 175.5,121.5C 175.627,123.915 175.793,126.249 176,128.5C 174.301,127.594 172.467,127.261 170.5,127.5 Z"/></g>
<g><path style="opacity:1" fill="#dad0cd" d="M 173.5,116.5 C 172.833,118.5 172.167,120.5 171.5,122.5C 170.326,123.514 169.66,124.847 169.5,126.5C 168.599,127.29 167.932,128.29 167.5,129.5C 167.5,130.167 167.167,130.5 166.5,130.5C 164.565,126.429 161.565,125.596 157.5,128C 156.748,128.671 156.414,129.504 156.5,130.5C 155.833,130.5 155.5,130.167 155.5,129.5C 155.167,128.833 154.833,128.167 154.5,127.5C 153.956,124.3 152.29,121.967 149.5,120.5C 150.492,120.672 151.158,120.338 151.5,119.5C 154.507,122.005 157.84,124.005 161.5,125.5C 164.176,124.162 166.842,122.829 169.5,121.5C 170.612,119.581 171.946,117.914 173.5,116.5 Z"/></g>
<g><path style="opacity:1" fill="#b2433c" d="M 173.5,115.5 C 175.955,119.734 177.289,124.4 177.5,129.5C 174.933,129.279 172.599,128.612 170.5,127.5C 172.467,127.261 174.301,127.594 176,128.5C 175.793,126.249 175.627,123.915 175.5,121.5C 174.041,121.433 172.708,121.766 171.5,122.5C 172.167,120.5 172.833,118.5 173.5,116.5C 173.5,116.167 173.5,115.833 173.5,115.5 Z"/></g>
<g><path style="opacity:1" fill="#71706d" d="M 154.5,127.5 C 154.833,128.167 155.167,128.833 155.5,129.5C 152.518,129.963 149.518,130.296 146.5,130.5C 148.902,129.007 151.569,128.007 154.5,127.5 Z"/></g>
<g><path style="opacity:1" fill="#e79f9a" d="M 172.5,109.5 C 173.391,110.11 174.391,110.443 175.5,110.5C 174.876,114.013 175.876,116.847 178.5,119C 177.919,119.893 177.585,120.893 177.5,122C 178.275,124.822 178.942,127.656 179.5,130.5C 186.21,131.755 192.877,131.755 199.5,130.5C 200.706,132.437 200.373,134.104 198.5,135.5C 192.921,133.586 186.921,132.586 180.5,132.5C 181.387,138.145 181.554,143.812 181,149.5C 179.824,151.196 178.657,152.862 177.5,154.5C 176.833,154.5 176.167,154.5 175.5,154.5C 175.167,153.833 174.833,153.167 174.5,152.5C 176.973,152.912 178.306,151.912 178.5,149.5C 179.808,143.963 179.808,138.296 178.5,132.5C 175.122,130.621 171.456,129.621 167.5,129.5C 167.932,128.29 168.599,127.29 169.5,126.5C 169.5,127.167 169.833,127.5 170.5,127.5C 172.599,128.612 174.933,129.279 177.5,129.5C 177.289,124.4 175.955,119.734 173.5,115.5C 173.804,114.85 174.137,114.183 174.5,113.5C 173.147,112.476 172.48,111.143 172.5,109.5 Z"/></g>
<g><path style="opacity:1" fill="#b83028" d="M 167.5,129.5 C 171.456,129.621 175.122,130.621 178.5,132.5C 179.808,138.296 179.808,143.963 178.5,149.5C 178.595,144.113 178.095,138.78 177,133.5C 173.915,132.568 170.748,131.901 167.5,131.5C 167.532,133.619 166.532,134.952 164.5,135.5C 165.167,133.833 165.833,132.167 166.5,130.5C 167.167,130.5 167.5,130.167 167.5,129.5 Z"/></g>
<g><path style="opacity:1" fill="#cdcbc9" d="M 146.5,121.5 C 146.38,124.48 145.713,127.313 144.5,130C 145.094,130.464 145.761,130.631 146.5,130.5C 145.531,131.309 144.698,132.309 144,133.5C 141.922,139.46 142.089,145.294 144.5,151C 146.134,151.494 147.801,151.66 149.5,151.5C 147.833,152.167 146.167,152.833 144.5,153.5C 143.034,152.653 142.2,151.32 142,149.5C 141.501,143.843 141.334,138.176 141.5,132.5C 135.69,133.711 130.023,133.711 124.5,132.5C 124.5,132.167 124.5,131.833 124.5,131.5C 130.156,132.589 135.823,132.422 141.5,131C 143.644,128.054 145.311,124.888 146.5,121.5 Z"/></g>
<g><path style="opacity:1" fill="#202020" d="M 49.5,127.5 C 52.7805,128.732 53.1138,130.399 50.5,132.5C 51.9796,134.544 51.4796,135.878 49,136.5C 47.7202,136.387 46.8869,135.72 46.5,134.5C 47.615,132.089 48.615,129.756 49.5,127.5 Z"/></g>
<g><path style="opacity:1" fill="#201e1d" d="M 268.5,126.5 C 269.251,129.942 271.251,132.609 274.5,134.5C 274.45,133.152 274.783,131.652 275.5,130C 278.833,129.333 282.167,129.333 285.5,130C 288.129,132.789 287.462,134.789 283.5,136C 278.833,136.667 274.167,136.667 269.5,136C 266.09,133.317 265.757,130.151 268.5,126.5 Z"/></g>
<g><path style="opacity:1" fill="#c7c6c4" d="M 280.5,131.5 C 282.337,131.639 282.67,132.306 281.5,133.5C 280.702,133.043 280.369,132.376 280.5,131.5 Z"/></g>
<g><path style="opacity:1" fill="#828282" d="M 1.5,128.5 C 1.26269,129.791 1.59603,130.791 2.5,131.5C 2.78448,133.415 2.45115,135.081 1.5,136.5C 1.76781,134.901 1.43448,133.568 0.5,132.5C 0.232191,130.901 0.565525,129.568 1.5,128.5 Z"/></g>
<g><path style="opacity:1" fill="#ae3731" d="M 164.5,135.5 C 164.155,139.115 164.822,142.448 166.5,145.5C 162.306,142.743 161.64,139.409 164.5,135.5 Z"/></g>
<g><path style="opacity:1" fill="#1b1815" d="M 124.5,132.5 C 130.023,133.711 135.69,133.711 141.5,132.5C 141.334,138.176 141.501,143.843 142,149.5C 142.2,151.32 143.034,152.653 144.5,153.5C 147.038,155.54 148.871,158.206 150,161.5C 153.139,169.087 155.972,176.753 158.5,184.5C 153.806,185.12 149.306,186.453 145,188.5C 144.5,188.167 144,187.833 143.5,187.5C 136.509,169.534 129.509,151.534 122.5,133.5C 122.957,132.702 123.624,132.369 124.5,132.5 Z"/></g>
<g><path style="opacity:1" fill="#b02d24" d="M 198.5,135.5 C 198.125,137.698 197.458,139.698 196.5,141.5C 196.318,139.409 196.652,137.409 197.5,135.5C 192.544,134.506 187.544,134.173 182.5,134.5C 182.99,141.393 182.323,148.06 180.5,154.5C 179.5,154.5 178.5,154.5 177.5,154.5C 178.657,152.862 179.824,151.196 181,149.5C 181.554,143.812 181.387,138.145 180.5,132.5C 186.921,132.586 192.921,133.586 198.5,135.5 Z"/></g>
<g><path style="opacity:1" fill="#d7241c" d="M 178.5,149.5 C 176.858,151.081 174.858,151.747 172.5,151.5C 171.415,149.413 169.749,148.08 167.5,147.5C 167.167,146.833 166.833,146.167 166.5,145.5C 164.822,142.448 164.155,139.115 164.5,135.5C 166.532,134.952 167.532,133.619 167.5,131.5C 170.748,131.901 173.915,132.568 177,133.5C 178.095,138.78 178.595,144.113 178.5,149.5 Z"/></g>
<g><path style="opacity:1" fill="#1b1816" d="M 155.5,129.5 C 155.5,130.167 155.833,130.5 156.5,130.5C 157.547,133.596 158.88,136.596 160.5,139.5C 158.2,144.798 154.533,148.798 149.5,151.5C 147.801,151.66 146.134,151.494 144.5,151C 142.089,145.294 141.922,139.46 144,133.5C 144.698,132.309 145.531,131.309 146.5,130.5C 149.518,130.296 152.518,129.963 155.5,129.5 Z"/></g>
<g><path style="opacity:1" fill="#3d3d3d" d="M 0.5,132.5 C 1.43448,133.568 1.76781,134.901 1.5,136.5C 1.18256,149.236 1.84922,161.903 3.5,174.5C 2.59603,175.209 2.26269,176.209 2.5,177.5C 1.03319,170.229 0.0331866,162.895 -0.5,155.5C -0.5,149.833 -0.5,144.167 -0.5,138.5C 0.461384,136.735 0.794717,134.735 0.5,132.5 Z"/></g>
<g><path style="opacity:1" fill="#aa4940" d="M 167.5,147.5 C 169.749,148.08 171.415,149.413 172.5,151.5C 170.251,150.92 168.585,149.587 167.5,147.5 Z"/></g>
<g><path style="opacity:1" fill="#862b22" d="M 178.5,149.5 C 178.306,151.912 176.973,152.912 174.5,152.5C 173.508,152.672 172.842,152.338 172.5,151.5C 174.858,151.747 176.858,151.081 178.5,149.5 Z"/></g>
<g><path style="opacity:1" fill="#6f6f6f" d="M 119.5,148.5 C 120.496,148.414 121.329,148.748 122,149.5C 127.362,162.391 132.862,175.225 138.5,188C 138.355,188.772 138.022,189.439 137.5,190C 131.457,192.107 125.624,194.607 120,197.5C 115.422,206.99 110.589,216.324 105.5,225.5C 106.667,225.833 107.833,226.167 109,226.5C 120.351,224.491 131.684,222.491 143,220.5C 149.407,220.248 155.24,221.914 160.5,225.5C 166.062,221.703 172.228,220.037 179,220.5C 190.224,221.711 201.391,223.378 212.5,225.5C 213.167,225.167 213.833,224.833 214.5,224.5C 210.318,216.136 206.151,207.802 202,199.5C 195.622,196.394 189.455,192.894 183.5,189C 189.663,176.174 195.996,163.34 202.5,150.5C 218.016,156.088 233.683,161.254 249.5,166C 252.349,168.559 253.183,171.726 252,175.5C 240.345,212.591 215.512,235.424 177.5,244C 133.617,249.499 99.4503,233.999 75,197.5C 69.6495,188.497 66.9829,178.83 67,168.5C 68.8734,166.291 71.04,164.458 73.5,163C 88.9051,158.03 104.238,153.196 119.5,148.5 Z"/></g>
<g><path style="opacity:1" fill="#d5251d" d="M 196.5,141.5 C 192.016,154.454 187.016,167.12 181.5,179.5C 180.466,180.687 179.133,181.52 177.5,182C 178.38,183.356 178.714,184.856 178.5,186.5C 175.167,185.833 171.833,185.167 168.5,184.5C 168.167,184.5 167.833,184.5 167.5,184.5C 167.196,183.85 166.863,183.183 166.5,182.5C 167.71,178.206 168.71,173.872 169.5,169.5C 171.11,164.336 173.11,159.336 175.5,154.5C 176.167,154.5 176.833,154.5 177.5,154.5C 178.5,154.5 179.5,154.5 180.5,154.5C 182.323,148.06 182.99,141.393 182.5,134.5C 187.544,134.173 192.544,134.506 197.5,135.5C 196.652,137.409 196.318,139.409 196.5,141.5 Z"/></g>
<g><path style="opacity:1" fill="#fdfdfd" d="M -0.5,155.5 C 0.0331866,162.895 1.03319,170.229 2.5,177.5C 17.2039,235.71 53.2039,274.21 110.5,293C 122.109,296.248 133.776,298.415 145.5,299.5C 96.8333,299.5 48.1667,299.5 -0.5,299.5C -0.5,251.5 -0.5,203.5 -0.5,155.5 Z"/></g>
<g><path style="opacity:1" fill="#272626" d="M 28.5,165.5 C 30.1667,165.5 31.8333,165.5 33.5,165.5C 33.7847,169.038 32.118,170.871 28.5,171C 30.1667,171.333 31.8333,171.667 33.5,172C 34.3366,173.011 34.67,174.178 34.5,175.5C 32.5122,175.827 30.5122,176.16 28.5,176.5C 27.5,176.167 26.5,175.833 25.5,175.5C 30.6572,174.013 30.3239,173.347 24.5,173.5C 24.5,172.5 24.5,171.5 24.5,170.5C 31.1219,168.862 31.1219,168.529 24.5,169.5C 23.6143,168.675 23.281,167.675 23.5,166.5C 25.4147,166.784 27.0813,166.451 28.5,165.5 Z"/></g>
<g><path style="opacity:1" fill="#fdfdfd" d="M 313.5,158.5 C 313.5,205.5 313.5,252.5 313.5,299.5C 263.167,299.5 212.833,299.5 162.5,299.5C 221.102,295.621 265.602,268.621 296,218.5C 306.192,199.659 312.026,179.659 313.5,158.5 Z"/></g>
<g><path style="opacity:1" fill="#201e1d" d="M 160.5,142.5 C 161.268,143.263 161.768,144.263 162,145.5C 162.284,153.351 162.784,161.184 163.5,169C 163.385,171.732 162.552,174.232 161,176.5C 159.101,173.626 158.267,170.459 158.5,167C 159.25,158.834 159.917,150.668 160.5,142.5 Z"/></g>
<g><path style="opacity:1" fill="#1c1c1c" d="M 283.5,170.5 C 285.5,170.5 287.5,170.5 289.5,170.5C 289.5,171.5 289.5,172.5 289.5,173.5C 283.339,173.105 283.006,174.105 288.5,176.5C 287.833,176.833 287.167,177.167 286.5,177.5C 284.218,176.777 281.884,176.443 279.5,176.5C 281.318,175.219 282.651,173.219 283.5,170.5 Z"/></g>
<g><path style="opacity:1" fill="#b7382c" d="M 169.5,169.5 C 168.71,173.872 167.71,178.206 166.5,182.5C 166.863,183.183 167.196,183.85 167.5,184.5C 166.167,184.5 164.833,184.5 163.5,184.5C 164.746,179.17 166.746,174.17 169.5,169.5 Z"/></g>
<g><path style="opacity:1" fill="#272727" d="M 207.5,8.5 C 213.042,9.62557 218.376,11.4589 223.5,14C 276.25,39.7161 306.25,81.5494 313.5,139.5C 313.5,145.833 313.5,152.167 313.5,158.5C 312.026,179.659 306.192,199.659 296,218.5C 265.602,268.621 221.102,295.621 162.5,299.5C 156.833,299.5 151.167,299.5 145.5,299.5C 133.776,298.415 122.109,296.248 110.5,293C 53.2039,274.21 17.2039,235.71 2.5,177.5C 2.26269,176.209 2.59603,175.209 3.5,174.5C 15.6726,228.013 47.006,265.513 97.5,287C 141.21,302.418 184.21,300.752 226.5,282C 291.232,247.039 318.732,192.872 309,119.5C 294.058,65.0648 260.225,28.0648 207.5,8.5 Z"/></g>
<g><path style="opacity:1" fill="#212121" d="M 175.5,270.5 C 180.5,269.5 182.5,271.5 181.5,276.5C 179.194,276.993 176.861,277.326 174.5,277.5C 174.325,274.671 175.658,273.004 178.5,272.5C 177.284,271.904 175.951,271.737 174.5,272C 175.056,271.617 175.389,271.117 175.5,270.5 Z"/></g>
<g><path style="opacity:1" fill="#131212" d="M 151.5,272.5 C 151.975,275.082 151.308,277.082 149.5,278.5C 149.025,275.918 149.692,273.918 151.5,272.5 Z"/></g>
<g><path style="opacity:1" fill="#1d1d1d" d="M 164.5,271.5 C 167.488,271.155 168.821,272.488 168.5,275.5C 168.167,276.5 167.833,277.5 167.5,278.5C 165.907,271.951 164.907,271.951 164.5,278.5C 163.5,278.5 162.5,278.5 161.5,278.5C 161.5,276.5 161.5,274.5 161.5,272.5C 162.791,272.737 163.791,272.404 164.5,271.5 Z"/></g>
<g><path style="opacity:1" fill="#0d0c0b" d="M 15s4.5,272.5 C 159.123,271.408 160.956,273.075 160,277.5C 154.42,279.752 152.587,278.085 154.5,272.5 Z"/></g>
<g><path style="opacity:1" fill="#dad9d7" d="M 155.5,273.5 C 158.569,273.963 159.069,275.296 157,277.5C 155.812,276.437 155.312,275.103 155.5,273.5 Z"/></g>
<g><path style="opacity:1" fill="#212020" d="M 127.5,269.5 C 130.346,269.03 132.679,269.863 134.5,272C 132.893,271.981 131.226,271.815 129.5,271.5C 129.5,272.5 129.5,273.5 129.5,274.5C 130.873,274.343 132.207,274.51 133.5,275C 127.923,277.259 125.923,275.426 127.5,269.5 Z"/></g>
<g><path style="opacity:1" fill="#2c2b2c" d="M 136.5,270.5 C 141.418,270.172 143.418,272.505 142.5,277.5C 139.881,277.768 137.381,277.435 135,276.5C 134.383,275.551 134.549,274.718 135.5,274C 140.833,273.333 140.833,272.667 135.5,272C 136.056,271.617 136.389,271.117 136.5,270.5 Z"/></g>
<g><path style="opacity:1" fill="#202020" d="M 185.5,268.5 C 186.822,268.33 187.989,268.663 189,269.5C 189.346,271.218 189.846,272.885 190.5,274.5C 189.675,275.386 188.675,275.719 187.5,275.5C 186.605,268.943 185.605,268.943 184.5,275.5C 182.717,273.977 182.051,271.977 182.5,269.5C 183.791,269.737 184.791,269.404 185.5,268.5 Z"/></g>
<g><path style="opacity:1" fill="#919090" d="M 151.5,272.5 C 149.692,273.918 149.025,275.918 149.5,278.5C 148.549,277.081 148.216,275.415 148.5,273.5C 148.167,272.833 147.833,272.167 147.5,271.5C 148.467,270.194 149.801,269.527 151.5,269.5C 151.5,270.5 151.5,271.5 151.5,272.5 Z"/></g>
<g><path style="opacity:1" fill="#292828" d="M 147.5,271.5 C 147.833,272.167 148.167,272.833 148.5,273.5C 146.186,274.179 145.853,275.512 147.5,277.5C 146.349,278.731 145.183,278.731 144,277.5C 142.969,274.317 143.635,271.651 146,269.5C 147.03,269.836 147.53,270.503 147.5,271.5 Z"/></g>
<g><path style="opacity:1" fill="#1f1e1f" d="M 119.5,266.5 C 121.164,267.949 121.998,269.949 122,272.5C 123.188,271.437 123.688,270.103 123.5,268.5C 124.675,268.281 125.675,268.614 126.5,269.5C 125.833,270.833 125.167,272.167 124.5,273.5C 122.674,273.92 120.674,273.92 118.5,273.5C 118.674,271.139 119.007,268.806 119.5,266.5 Z"/></g>
<g><path style="opacity:1" fill="#1f1e1e" d="M 116.5,263.5 C 117.675,263.281 118.675,263.614 119.5,264.5C 118.352,267.289 117.019,269.956 115.5,272.5C 110.805,272.026 109.472,269.692 111.5,265.5C 112.776,264.355 114.109,264.355 115.5,265.5C 116.298,265.043 116.631,264.376 116.5,263.5 Z"/></g>
<g><path style="opacity:1" fill="#171716" d="M 194.5,263.5 C 196.956,265.818 198.289,268.818 198.5,272.5C 196.105,273.363 193.771,273.363 191.5,272.5C 189.726,269.15 190.726,267.484 194.5,267.5C 194.5,266.167 194.5,264.833 194.5,263.5 Z"/></g>
<g><path style="opacity:1" fill="#dbdad8" d="M 193.5,268.5 C 195.332,269.14 195.665,270.14 194.5,271.5C 192.481,270.867 192.147,269.867 193.5,268.5 Z"/></g>
<g><path style="opacity:1" fill="#c5c3c4" d="M 113.5,266.5 C 115.625,267.368 115.791,268.368 114,269.5C 112.317,268.824 112.15,267.824 113.5,266.5 Z"/></g>
<g><path style="opacity:1" fill="#141413" d="M 203.5,260.5 C 205.199,260.34 206.866,260.506 208.5,261C 207.322,261.967 205.989,262.467 204.5,262.5C 206.396,263.466 208.396,263.799 210.5,263.5C 210.802,268.849 208.469,270.516 203.5,268.5C 205.167,267.833 206.833,267.167 208.5,266.5C 206.314,265.779 204.147,265.113 202,264.5C 201.7,262.934 202.2,261.601 203.5,260.5 Z"/></g>
<g><path style="opacity:1" fill="#1a191a" d="M 104.5,258.5 C 107.09,259.128 109.423,260.295 111.5,262C 109.687,261.954 108.021,262.12 106.5,262.5C 110.603,266.298 110.27,266.965 105.5,264.5C 105.167,264.833 104.833,265.167 104.5,265.5C 105.833,266.5 107.167,267.5 108.5,268.5C 105.677,269.437 103.343,268.603 101.5,266C 102.651,263.535 103.651,261.035 104.5,258.5 Z"/></g>
<g><path style="opacity:1" fill="#1d1d1d" d="M 214.5,258.5 C 218.47,259.979 218.137,260.646 213.5,260.5C 213.52,264.513 214.853,265.18 217.5,262.5C 218.594,263.868 218.26,265.035 216.5,266C 211.917,266.934 210.417,265.1 212,260.5C 212.995,259.934 213.828,259.267 214.5,258.5 Z"/></g>
<g><path style="opacity:1" fill="#1a191a" d="M 94.5,257.5 C 96.1789,257.892 97.8455,258.392 99.5,259C 97.0205,259.879 95.0205,261.379 93.5,263.5C 92.5307,261.383 92.864,259.383 94.5,257.5 Z"/></g>
<g><path style="opacity:1" fill="#1a1a1a" d="M 218.5,256.5 C 220.619,257.791 222.285,259.625 223.5,262C 219.965,262.194 218.299,260.36 218.5,256.5 Z"/></g>
<g><path style="opacity:1" fill="#171616" d="M 90.5,259.5 C 86.5062,261.349 85.0062,260.015 86,255.5C 89.172,252.612 91.3386,253.278 92.5,257.5C 92.2528,258.713 91.5862,259.38 90.5,259.5 Z"/></g>
<g><path style="opacity:1" fill="#dbd9da" d="M 89.5,257.5 C 89.8333,258.167 90.1667,258.833 90.5,259.5C 89.325,259.719 88.325,259.386 87.5,258.5C 87.9569,257.702 88.6236,257.369 89.5,257.5 Z"/></g>
<g><path style="opacity:1" fill="#242324" d="M 228.5,256.5 C 229.239,256.369 229.906,256.536 230.5,257C 227.288,261.827 224.622,261.661 222.5,256.5C 222.574,254.261 223.741,253.261 226,253.5C 228.77,253.404 229.604,254.404 228.5,256.5 Z"/></g>
<g><path style="opacity:1" fill="#e6e6e6" d="M 228.5,256.5 C 227.998,258.085 226.998,258.585 225.5,258C 226.244,256.961 227.244,256.461 228.5,256.5 Z"/></g>
<g><path style="opacity:1" fill="#272727" d="M 218.5,256.5 C 217.624,256.631 216.957,256.298 216.5,255.5C 218.808,254.127 219.475,254.46 218.5,256.5 Z"/></g>
<g><path style="opacity:1" fill="#f1eff0" d="M 89.5,257.5 C 88.537,256.637 88.537,255.97 89.5,255.5C 90.7733,256.257 90.7733,256.923 89.5,257.5 Z"/></g>
<g><path style="opacity:1" fill="#151415" d="M 235.5,248.5 C 238.035,254.809 237.202,255.476 233,250.5C 232.5,251 232,251.5 231.5,252C 233.421,253.241 233.754,254.741 232.5,256.5C 227.16,252.074 228.16,249.408 235.5,248.5 Z"/></g>
<g><path style="opacity:1" fill="#1b1a1a" d="M 81.5,246.5 C 85.1351,246.656 85.4685,247.822 82.5,250C 83.448,250.483 84.448,250.649 85.5,250.5C 85.8541,253.421 84.8541,255.754 82.5,257.5C 82.0981,255.366 82.0981,253.366 82.5,251.5C 81.1667,252.5 79.8333,253.5 78.5,254.5C 78.1667,254.167 77.8333,253.833 77.5,253.5C 78.8611,251.15 80.1944,248.816 81.5,246.5 Z"/></g>
<g><path style="opacity:1" fill="#171617" d="M 71.5,249.5 C 72.3845,242.401 75.0511,241.734 79.5,247.5C 77.9733,249.193 76.6399,251.027 75.5,253C 71.4943,253.987 69.661,252.487 70,248.5C 70.3826,249.056 70.8826,249.389 71.5,249.5 Z"/></g>
<g><path style="opacity:1" fill="#8e8c8d" d="M 71.5,249.5 C 73.0481,249.179 73.7148,248.179 73.5,246.5C 75.3547,246.272 76.1881,246.939 76,248.5C 75.221,249.728 74.221,250.728 73,251.5C 71.9701,251.164 71.4701,250.497 71.5,249.5 Z"/></g>
<g><path style="opacity:1" fill="#1d1b1c" d="M 235.5,248.5 C 235.34,246.801 235.506,245.134 236,243.5C 237.011,244.337 238.178,244.67 239.5,244.5C 239.137,246.911 240.137,248.411 242.5,249C 241.892,249.87 241.059,250.37 240,250.5C 238.594,249.586 237.094,248.92 235.5,248.5 Z"/></g>
<g><path style="opacity:1" fill="#171616" d="M 240.5,242.5 C 242.371,242.859 243.871,243.859 245,245.5C 245.563,246.725 245.23,247.725 244,248.5C 242.558,246.609 241.391,244.609 240.5,242.5 Z"/></g>
<g><path style="opacity:1" fill="#302e2f" d="M 72.5,238.5 C 73.4778,238.811 74.1445,239.478 74.5,240.5C 72.8333,242.833 70.8333,244.833 68.5,246.5C 68.1667,246.167 67.8333,245.833 67.5,245.5C 68.8037,242.87 70.4704,240.537 72.5,238.5 Z"/></g>
<g><path style="opacity:1" fill="#1d1d1d" d="M 239.5,239.5 C 240.713,240.497 240.546,241.497 239,242.5C 238.53,241.423 238.697,240.423 239.5,239.5 Z"/></g>
<g><path style="opacity:1" fill="#0c0c0c" d="M 247.5,236.5 C 249.371,236.859 250.871,237.859 252,239.5C 252.563,240.725 252.23,241.725 251,242.5C 249.579,240.595 248.412,238.595 247.5,236.5 Z"/></g>
<g><path style="opacity:1" fill="#242424" d="M 245.5,234.5 C 246.239,234.369 246.906,234.536 247.5,235C 246.5,236 245.5,237 244.5,238C 245.991,240.089 247.658,242.089 249.5,244C 248.975,244.692 248.308,245.192 247.5,245.5C 245.804,243.475 244.137,241.475 242.5,239.5C 242.757,237.308 243.757,235.641 245.5,234.5 Z"/></g>
<g><path style="opacity:1" fill="#1c1a19" d="M 64.5,232.5 C 65.3764,232.369 66.0431,232.702 66.5,233.5C 65.1667,236.833 66.1667,237.833 69.5,236.5C 70.3081,236.808 70.9747,237.308 71.5,238C 69.316,240.016 67.316,242.183 65.5,244.5C 63.0428,242.999 63.0428,241.332 65.5,239.5C 63.7408,238.246 62.2408,238.579 61,240.5C 60.3076,239.975 59.8076,239.308 59.5,238.5C 61.1897,236.481 62.8564,234.481 64.5,232.5 Z"/></g>
<g><path style="opacity:1" fill="#201f20" d="M 253.5,230.5 C 254.376,230.369 255.043,230.702 255.5,231.5C 252.18,232.761 251.846,234.428 254.5,236.5C 255.262,235.372 255.929,234.205 256.5,233C 257.483,232.409 258.15,232.743 258.5,234C 256.167,239.357 253.5,239.691 250.5,235C 250.957,233.06 251.957,231.56 253.5,230.5 Z"/></g>
<g><path style="opacity:1" fill="#1d1c1c" d="M 58.5,225.5 C 59.9953,225.415 60.9953,226.081 61.5,227.5C 59.2188,229.553 56.7188,231.22 54,232.5C 53.5,232 53,231.5 52.5,231C 54.1988,228.691 56.1988,226.858 58.5,225.5 Z"/></g>
<g><path style="opacity:1" fill="#252424" d="M 49.5,220.5 C 54.2624,221.092 55.5957,223.592 53.5,228C 47.4034,228.147 46.0701,225.647 49.5,220.5 Z"/></g>
<g><path style="opacity:1" fill="#1a1919" d="M 259.5,218.5 C 262.5,218.167 263.833,219.5 263.5,222.5C 265.199,222.34 266.866,222.506 268.5,223C 266.624,224.017 264.624,224.851 262.5,225.5C 264.856,226.654 265.023,227.987 263,229.5C 260.5,227.667 258,225.833 255.5,224C 257.439,222.568 258.772,220.735 259.5,218.5 Z"/></g>
<g><path style="opacity:1" fill="#f1eff0" d="M 50.5,223.5 C 52.9732,223.947 53.1399,224.947 51,226.5C 49.2716,225.648 49.105,224.648 50.5,223.5 Z"/></g>
<g><path style="opacity:1" fill="#e7e6e4" d="M 259.5,221.5 C 261.337,221.639 261.67,222.306 260.5,223.5C 259.702,223.043 259.369,222.376 259.5,221.5 Z"/></g>
<g><path style="opacity:1" fill="#181817" d="M 270.5,215.5 C 271.801,216.884 271.801,218.384 270.5,220C 264.44,221.066 263.106,219.066 266.5,214C 268.463,213.156 269.796,213.656 270.5,215.5 Z"/></g>
<g><path style="opacity:1" fill="#7f7e7e" d="M 270.5,215.5 C 270.478,217.8 269.478,218.967 267.5,219C 266.269,217.817 266.269,216.651 267.5,215.5C 268.527,216.791 269.527,216.791 270.5,215.5 Z"/></g>
<g><path style="opacity:1" fill="#141414" d="M 44.5,210.5 C 45.3764,210.369 46.0431,210.702 46.5,211.5C 45.6872,212.814 44.6872,213.981 43.5,215C 45.2251,214.591 46.8918,214.758 48.5,215.5C 45.2302,217.16 41.8969,217.494 38.5,216.5C 38.2907,215.914 37.9574,215.414 37.5,215C 38.8333,215 40.1667,215 41.5,215C 42.3862,213.385 43.3862,211.885 44.5,210.5 Z"/></g>
<g><path style="opacity:1" fill="#151515" d="M 270.5,206.5 C 271.239,206.369 271.906,206.536 272.5,207C 269.992,211.444 270.492,211.611 274,207.5C 276.099,210.12 275.766,212.453 273,214.5C 273.333,212.833 273.667,211.167 274,209.5C 272.981,210.687 271.814,211.687 270.5,212.5C 268.001,210.604 268.001,208.604 270.5,206.5 Z"/></g>
<g><path style="opacity:1" fill="#121212" d="M 40.5,205.5 C 42.5901,205.45 43.9234,206.45 44.5,208.5C 42.2463,208.754 39.913,208.754 37.5,208.5C 38.3398,207.265 39.3398,206.265 40.5,205.5 Z"/></g>
<g><path style="opacity:1" fill="#1f1d1e" d="M 275.5,199.5 C 276.552,199.351 277.552,199.517 278.5,200C 277.241,200.923 275.908,201.757 274.5,202.5C 274.846,203.696 275.346,203.696 276,202.5C 276.417,203.756 277.25,204.423 278.5,204.5C 277.172,206.745 275.339,207.078 273,205.5C 272.028,202.706 272.861,200.706 275.5,199.5 Z"/></g>
<g><path style="opacity:1" fill="#949293" d="M 281.5,199.5 C 281.047,201.565 280.047,203.232 278.5,204.5C 277.25,204.423 276.417,203.756 276,202.5C 275.346,203.696 274.846,203.696 274.5,202.5C 275.908,201.757 277.241,200.923 278.5,200C 277.552,199.517 276.552,199.351 275.5,199.5C 275.833,198.833 276.167,198.167 276.5,197.5C 277.161,196.282 277.828,194.949 278.5,193.5C 279.902,193.865 280.902,194.699 281.5,196C 280.616,197.098 279.616,197.598 278.5,197.5C 279.005,198.919 280.005,199.585 281.5,199.5 Z"/></g>
<g><path style="opacity:1" fill="#191819" d="M 39.5,199.5 C 40.9008,199.971 42.2342,200.638 43.5,201.5C 41.2269,203.005 38.8935,204.671 36.5,206.5C 36.1667,205.833 35.8333,205.167 35.5,204.5C 36.8229,202.835 38.1562,201.168 39.5,199.5 Z"/></g>
<g><path style="opacity:1" fill="#1b1a1a" d="M 281.5,199.5 C 280.005,199.585 279.005,198.919 278.5,197.5C 279.616,197.598 280.616,197.098 281.5,196C 280.902,194.699 279.902,193.865 278.5,193.5C 277.828,194.949 277.161,196.282 276.5,197.5C 275.467,191.9 277.8,190.233 283.5,192.5C 283.233,194.965 282.566,197.299 281.5,199.5 Z"/></g>
<g><path style="opacity:1" fill="#1d1d1d" d="M 34.5,193.5 C 35.8221,193.33 36.9887,193.663 38,194.5C 37.4829,195.851 36.9829,197.851 36.5,200.5C 32.4739,200.743 31.1406,199.077 32.5,195.5C 33.2508,196.376 33.7508,197.376 34,198.5C 34.4935,196.866 34.6602,195.199 34.5,193.5 Z"/></g>
<g><path style="opacity:1" fill="#131212" d="M 34.5,189.5 C 36.2327,190.008 36.566,190.841 35.5,192C 33.3369,193.48 31.3369,193.48 29.5,192C 31.3146,191.243 32.9812,190.41 34.5,189.5 Z"/></g>
<g><path style="opacity:1" fill="#1e1e1e" d="M 281.5,185.5 C 281.561,188.05 282.894,189.55 285.5,190C 283.158,191.745 280.825,191.579 278.5,189.5C 278.815,187.517 279.815,186.184 281.5,185.5 Z"/></g>
<g><path style="opacity:1" fill="#b3362e" d="M 181.5,179.5 C 180.431,189.519 176.097,191.186 168.5,184.5C 171.833,185.167 175.167,185.833 178.5,186.5C 178.714,184.856 178.38,183.356 177.5,182C 179.133,181.52 180.466,180.687 181.5,179.5 Z"/></g>
<g><path style="opacity:1" fill="#151515" d="M 31.5,181.5 C 33.821,183.09 34.821,185.423 34.5,188.5C 27.9785,190.081 27.3118,189.081 32.5,185.5C 30.9936,184.253 29.4936,184.253 28,185.5C 27.5172,184.552 27.3505,183.552 27.5,182.5C 29.099,182.768 30.4324,182.434 31.5,181.5 Z"/></g>
<g><path style="opacity:1" fill="#1e1d1d" d="M 281.5,185.5 C 280.181,183.532 280.181,181.532 281.5,179.5C 283.606,178.635 283.939,179.302 282.5,181.5C 282.833,182.5 283.5,183.167 284.5,183.5C 285.167,181.833 285.833,180.167 286.5,178.5C 288.516,183.469 286.849,185.802 281.5,185.5 Z"/></g>
<g><path style="opacity:1" fill="#191919" d="M 30.5,177.5 C 32.0481,177.821 32.7148,178.821 32.5,180.5C 30.5328,180.261 28.6995,180.594 27,181.5C 26.5172,180.552 26.3505,179.552 26.5,178.5C 28.099,178.768 29.4324,178.434 30.5,177.5 Z"/></g>
<g><path style="opacity:1" fill="#292929" d="M 33.5,177.5 C 35.337,177.639 35.6704,178.306 34.5,179.5C 33.7025,179.043 33.3691,178.376 33.5,177.5 Z"/></g>
</svg>
